<svg width="40" height="41" viewBox="0 0 40 41" fill="none" xmlns="http://www.w3.org/2000/svg">
<rect y="0.649109" width="40" height="39.9298" rx="3" fill="#FE9800"/>
<path d="M19.5173 33C18.2458 32.9938 17.2149 31.9695 17.2023 30.7H21.8092C21.812 31.0074 21.7537 31.3123 21.6376 31.597C21.3353 32.2892 20.7182 32.7941 19.9791 32.954H19.9734H19.9584H19.9469H19.9342H19.9261C19.7916 32.9818 19.6547 32.9972 19.5173 33ZM28.7311 29.55H10.3035V27.25L12.6069 26.1V19.775C12.5462 18.1525 12.9132 16.5425 13.6711 15.106C14.4255 13.7737 15.7151 12.8277 17.2138 12.507V10H21.8207V12.507C24.791 13.2131 26.4276 15.7937 26.4276 19.775V26.1L28.7311 27.25V29.55ZM31 19.2H28.6965C28.5893 16.226 27.1575 13.4552 24.7922 11.6445L26.4276 10C27.8052 11.0701 28.9183 12.4416 29.6813 14.0089C30.4702 15.6316 30.9189 17.398 31 19.2ZM10.3035 19.2H8C8.08103 17.398 8.52978 15.6316 9.31873 14.0089C10.0817 12.4416 11.1948 11.0701 12.5724 10L14.2078 11.6445C11.8423 13.455 10.4104 16.2259 10.3035 19.2Z" fill="#1F1D2B"/>
</svg>
