<svg width="40" height="41" viewBox="0 0 40 41" fill="none" xmlns="http://www.w3.org/2000/svg">
<rect y="0.508759" width="40" height="39.9298" rx="3" fill="#EA6367"/>
<path d="M19.5173 32C18.2458 31.9938 17.2149 30.9695 17.2023 29.7H21.8092C21.812 30.0074 21.7537 30.3123 21.6376 30.597C21.3353 31.2892 20.7182 31.7941 19.9791 31.954H19.9734H19.9584H19.9469H19.9342H19.9261C19.7916 31.9818 19.6547 31.9972 19.5173 32ZM28.7311 28.55H10.3035V26.25L12.6069 25.1V18.775C12.5462 17.1525 12.9132 15.5425 13.6711 14.106C14.4255 12.7737 15.7151 11.8277 17.2138 11.507V9H21.8207V11.507C24.791 12.2131 26.4276 14.7937 26.4276 18.775V25.1L28.7311 26.25V28.55ZM31 18.2H28.6965C28.5893 15.226 27.1575 12.4552 24.7922 10.6445L26.4276 9C27.8052 10.0701 28.9183 11.4416 29.6813 13.0089C30.4702 14.6316 30.9189 16.398 31 18.2ZM10.3035 18.2H8C8.08103 16.398 8.52978 14.6316 9.31873 13.0089C10.0817 11.4416 11.1948 10.0701 12.5724 9L14.2078 10.6445C11.8423 12.455 10.4104 15.2259 10.3035 18.2Z" fill="#1F1D2B"/>
</svg>
