<svg width="32" height="32" viewBox="0 0 32 32" fill="none" xmlns="http://www.w3.org/2000/svg">
<path d="M31.3937 12.925C31.6375 12.7313 32 12.9125 32 13.2188V26C32 27.6562 30.6562 29 29 29H3C1.34375 29 0 27.6562 0 26V13.225C0 12.9125 0.35625 12.7375 0.60625 12.9312C2.00625 14.0187 3.8625 15.4 10.2375 20.0312C11.5563 20.9937 13.7812 23.0188 16 23.0063C18.2313 23.025 20.5 20.9563 21.7687 20.0312C28.1437 15.4 29.9937 14.0125 31.3937 12.925ZM16 21C17.45 21.025 19.5375 19.175 20.5875 18.4125C28.8812 12.3938 29.5125 11.8687 31.425 10.3687C31.7875 10.0875 32 9.65 32 9.1875V8C32 6.34375 30.6562 5 29 5H3C1.34375 5 0 6.34375 0 8V9.1875C0 9.65 0.2125 10.0812 0.575 10.3687C2.4875 11.8625 3.11875 12.3938 11.4125 18.4125C12.4625 19.175 14.55 21.025 16 21Z" fill="#FF5800"/>
</svg>
