<svg width="32" height="32" viewBox="0 0 32 32" fill="none" xmlns="http://www.w3.org/2000/svg">
<g clip-path="url(#clip0_1080_115)">
<path d="M27 21H25C24.7348 21 24.4804 21.1054 24.2929 21.2929C24.1054 21.4804 24 21.7348 24 22V29H4V9H13C13.2652 9 13.5196 8.89464 13.7071 8.70711C13.8946 8.51957 14 8.26522 14 8V6C14 5.73478 13.8946 5.48043 13.7071 5.29289C13.5196 5.10536 13.2652 5 13 5H3C2.20435 5 1.44129 5.31607 0.87868 5.87868C0.31607 6.44129 0 7.20435 0 8L0 30C0 30.7956 0.31607 31.5587 0.87868 32.1213C1.44129 32.6839 2.20435 33 3 33H25C25.7956 33 26.5587 32.6839 27.1213 32.1213C27.6839 31.5587 28 30.7956 28 30V22C28 21.7348 27.8946 21.4804 27.7071 21.2929C27.5196 21.1054 27.2652 21 27 21ZM30.5 1H22.5C21.1644 1 20.4969 2.61937 21.4375 3.5625L23.6706 5.79563L8.4375 21.0231C8.29766 21.1625 8.1867 21.3281 8.111 21.5104C8.03529 21.6927 7.99632 21.8882 7.99632 22.0856C7.99632 22.283 8.03529 22.4785 8.111 22.6609C8.1867 22.8432 8.29766 23.0088 8.4375 23.1481L9.85437 24.5625C9.99373 24.7023 10.1593 24.8133 10.3416 24.889C10.524 24.9647 10.7195 25.0037 10.9169 25.0037C11.1143 25.0037 11.3098 24.9647 11.4921 24.889C11.6744 24.8133 11.84 24.7023 11.9794 24.5625L27.205 9.3325L29.4375 11.5625C30.375 12.5 32 11.8438 32 10.5V2.5C32 2.10218 31.842 1.72064 31.5607 1.43934C31.2794 1.15804 30.8978 1 30.5 1V1Z" fill="#FF5800"/>
</g>
<defs>
<clipPath id="clip0_1080_115">
<rect width="32" height="32" fill="white"/>
</clipPath>
</defs>
</svg>
